<mxfile host="app.diagrams.net" modified="2021-08-19T07:59:44.563Z" agent="5.0 (Macintosh; Intel Mac OS X 10_14_5) AppleWebKit/537.36 (KHTML, like Gecko) Chrome/92.0.4515.131 Safari/537.36" etag="tVVIAyJ0MIhtIYQixSRw" version="14.9.5" type="github">
  <diagram name="Page-1" id="9361dd3d-8414-5efd-6122-117bd74ce7a7">
    <mxGraphModel dx="1426" dy="771" grid="1" gridSize="10" guides="1" tooltips="1" connect="1" arrows="1" fold="1" page="0" pageScale="1.5" pageWidth="826" pageHeight="1169" background="none" math="0" shadow="0">
      <root>
        <mxCell id="0" />
        <mxCell id="1" parent="0" />
        <mxCell id="-DsZsUz7Ngo_Cz6wqwiF-262" value="frame" style="shape=umlFrame;whiteSpace=wrap;html=1;" parent="1" vertex="1">
          <mxGeometry x="190" y="260" width="730" height="260" as="geometry" />
        </mxCell>
        <mxCell id="-DsZsUz7Ngo_Cz6wqwiF-94" value="&lt;span&gt;&lt;font style=&quot;font-size: 12px&quot;&gt;pay-assetcenter&lt;/font&gt;&lt;/span&gt;" style="shape=umlLifeline;perimeter=lifelinePerimeter;whiteSpace=wrap;html=1;container=1;collapsible=0;recursiveResize=0;outlineConnect=0;rounded=1;shadow=0;comic=0;labelBackgroundColor=none;strokeWidth=1;fontFamily=Verdana;fontSize=12;align=center;" parent="1" vertex="1">
          <mxGeometry x="260" y="80" width="100" height="3360" as="geometry" />
        </mxCell>
        <mxCell id="-DsZsUz7Ngo_Cz6wqwiF-242" value="" style="html=1;points=[];perimeter=orthogonalPerimeter;rounded=0;shadow=0;comic=0;labelBackgroundColor=none;strokeWidth=1;fontFamily=Verdana;fontSize=12;align=center;" parent="1" vertex="1">
          <mxGeometry x="305" y="180" width="10" height="1100" as="geometry" />
        </mxCell>
        <mxCell id="-DsZsUz7Ngo_Cz6wqwiF-90" value="NUCC" style="shape=umlLifeline;perimeter=lifelinePerimeter;whiteSpace=wrap;html=1;container=0;collapsible=0;recursiveResize=0;outlineConnect=0;rounded=1;shadow=0;comic=0;labelBackgroundColor=none;strokeWidth=1;fontFamily=Verdana;fontSize=12;align=center;" parent="1" vertex="1">
          <mxGeometry x="820" y="80" width="100" height="3360" as="geometry" />
        </mxCell>
        <mxCell id="-DsZsUz7Ngo_Cz6wqwiF-96" value="pay-fund-channel" style="shape=umlLifeline;perimeter=lifelinePerimeter;whiteSpace=wrap;html=1;container=1;collapsible=0;recursiveResize=0;outlineConnect=0;rounded=1;shadow=0;comic=0;labelBackgroundColor=none;strokeWidth=1;fontFamily=Verdana;fontSize=12;align=center;" parent="1" vertex="1">
          <mxGeometry x="400" y="80" width="100" height="3360" as="geometry" />
        </mxCell>
        <mxCell id="-DsZsUz7Ngo_Cz6wqwiF-98" value="pay-channel" style="shape=umlLifeline;perimeter=lifelinePerimeter;whiteSpace=wrap;html=1;container=1;collapsible=0;recursiveResize=0;outlineConnect=0;rounded=1;shadow=0;comic=0;labelBackgroundColor=none;strokeWidth=1;fontFamily=Verdana;fontSize=12;align=center;" parent="1" vertex="1">
          <mxGeometry x="540" y="80" width="100" height="3360" as="geometry" />
        </mxCell>
        <mxCell id="-DsZsUz7Ngo_Cz6wqwiF-99" value="pay-customercore" style="shape=umlLifeline;perimeter=lifelinePerimeter;whiteSpace=wrap;html=1;container=1;collapsible=0;recursiveResize=0;outlineConnect=0;rounded=1;shadow=0;comic=0;labelBackgroundColor=none;strokeWidth=1;fontFamily=Verdana;fontSize=12;align=center;" parent="1" vertex="1">
          <mxGeometry x="680" y="80" width="100" height="3360" as="geometry" />
        </mxCell>
        <mxCell id="CnnFhk8UefjDQZWVQF-c-44" value="" style="html=1;points=[];perimeter=orthogonalPerimeter;rounded=0;shadow=0;comic=0;labelBackgroundColor=none;strokeWidth=1;fontFamily=Verdana;fontSize=12;align=center;" parent="-DsZsUz7Ngo_Cz6wqwiF-99" vertex="1">
          <mxGeometry x="45" y="1520" width="10" height="40" as="geometry" />
        </mxCell>
        <mxCell id="CnnFhk8UefjDQZWVQF-c-45" value="查询银行卡认证进件信息" style="html=1;verticalAlign=bottom;endArrow=block;labelBackgroundColor=none;fontFamily=Verdana;fontSize=12;edgeStyle=elbowEdgeStyle;elbow=vertical;exitX=1;exitY=0.854;exitDx=0;exitDy=0;exitPerimeter=0;" parent="-DsZsUz7Ngo_Cz6wqwiF-99" edge="1">
          <mxGeometry relative="1" as="geometry">
            <mxPoint x="-85" y="1520" as="sourcePoint" />
            <mxPoint x="47" y="1521.6" as="targetPoint" />
            <Array as="points">
              <mxPoint x="-80" y="1521.6" />
            </Array>
          </mxGeometry>
        </mxCell>
        <mxCell id="CnnFhk8UefjDQZWVQF-c-46" value="return" style="html=1;verticalAlign=bottom;endArrow=open;dashed=1;endSize=6;labelBackgroundColor=none;fontFamily=Verdana;fontSize=12;edgeStyle=elbowEdgeStyle;elbow=vertical;" parent="-DsZsUz7Ngo_Cz6wqwiF-99" edge="1">
          <mxGeometry relative="1" as="geometry">
            <mxPoint x="-85" y="1548.5" as="targetPoint" />
            <Array as="points">
              <mxPoint x="-10" y="1548.5" />
              <mxPoint x="20" y="1548.5" />
            </Array>
            <mxPoint x="45" y="1548.5" as="sourcePoint" />
          </mxGeometry>
        </mxCell>
        <mxCell id="-DsZsUz7Ngo_Cz6wqwiF-101" value="&lt;font style=&quot;font-size: 12px&quot;&gt;pay-ucashier&lt;/font&gt;" style="shape=umlLifeline;perimeter=lifelinePerimeter;whiteSpace=wrap;html=1;container=1;collapsible=0;recursiveResize=0;outlineConnect=0;rounded=1;shadow=0;comic=0;labelBackgroundColor=none;strokeWidth=1;fontFamily=Verdana;fontSize=12;align=center;" parent="1" vertex="1">
          <mxGeometry x="120" y="80" width="100" height="3360" as="geometry" />
        </mxCell>
        <mxCell id="-DsZsUz7Ngo_Cz6wqwiF-102" value="" style="html=1;points=[];perimeter=orthogonalPerimeter;rounded=0;shadow=0;comic=0;labelBackgroundColor=none;strokeWidth=1;fontFamily=Verdana;fontSize=12;align=center;" parent="-DsZsUz7Ngo_Cz6wqwiF-101" vertex="1">
          <mxGeometry x="45" y="100" width="10" height="440" as="geometry" />
        </mxCell>
        <mxCell id="-DsZsUz7Ngo_Cz6wqwiF-104" value="Note" style="shape=note;whiteSpace=wrap;html=1;size=14;verticalAlign=top;align=left;spacingTop=-6;rounded=0;shadow=0;comic=0;labelBackgroundColor=none;strokeWidth=1;fontFamily=Verdana;fontSize=12" parent="1" vertex="1">
          <mxGeometry x="120" y="30" width="100" height="35" as="geometry" />
        </mxCell>
        <mxCell id="-DsZsUz7Ngo_Cz6wqwiF-105" value="Note" style="shape=note;whiteSpace=wrap;html=1;size=14;verticalAlign=top;align=left;spacingTop=-6;rounded=0;shadow=0;comic=0;labelBackgroundColor=none;strokeWidth=1;fontFamily=Verdana;fontSize=12" parent="1" vertex="1">
          <mxGeometry x="260" y="30" width="100" height="35" as="geometry" />
        </mxCell>
        <mxCell id="-DsZsUz7Ngo_Cz6wqwiF-106" value="Note" style="shape=note;whiteSpace=wrap;html=1;size=14;verticalAlign=top;align=left;spacingTop=-6;rounded=0;shadow=0;comic=0;labelBackgroundColor=none;strokeWidth=1;fontFamily=Verdana;fontSize=12" parent="1" vertex="1">
          <mxGeometry x="400" y="30" width="100" height="35" as="geometry" />
        </mxCell>
        <mxCell id="-DsZsUz7Ngo_Cz6wqwiF-107" value="Note" style="shape=note;whiteSpace=wrap;html=1;size=14;verticalAlign=top;align=left;spacingTop=-6;rounded=0;shadow=0;comic=0;labelBackgroundColor=none;strokeWidth=1;fontFamily=Verdana;fontSize=12" parent="1" vertex="1">
          <mxGeometry x="540" y="30" width="100" height="35" as="geometry" />
        </mxCell>
        <mxCell id="-DsZsUz7Ngo_Cz6wqwiF-108" value="Note" style="shape=note;whiteSpace=wrap;html=1;size=14;verticalAlign=top;align=left;spacingTop=-6;rounded=0;shadow=0;comic=0;labelBackgroundColor=none;strokeWidth=1;fontFamily=Verdana;fontSize=12" parent="1" vertex="1">
          <mxGeometry x="680" y="30" width="100" height="35" as="geometry" />
        </mxCell>
        <mxCell id="-DsZsUz7Ngo_Cz6wqwiF-109" value="Note" style="shape=note;whiteSpace=wrap;html=1;size=14;verticalAlign=top;align=left;spacingTop=-6;rounded=0;shadow=0;comic=0;labelBackgroundColor=none;strokeWidth=1;fontFamily=Verdana;fontSize=12" parent="1" vertex="1">
          <mxGeometry x="820" y="30" width="100" height="35" as="geometry" />
        </mxCell>
        <mxCell id="-DsZsUz7Ngo_Cz6wqwiF-117" value="" style="html=1;points=[];perimeter=orthogonalPerimeter;rounded=0;shadow=0;comic=0;labelBackgroundColor=none;strokeWidth=1;fontFamily=Verdana;fontSize=12;align=center;" parent="1" vertex="1">
          <mxGeometry x="865" y="320" width="10" height="40" as="geometry" />
        </mxCell>
        <mxCell id="-DsZsUz7Ngo_Cz6wqwiF-119" value="查询商户风险等级" style="html=1;verticalAlign=bottom;endArrow=block;labelBackgroundColor=none;fontFamily=Verdana;fontSize=12;edgeStyle=elbowEdgeStyle;elbow=vertical;entryX=0.1;entryY=0.025;entryDx=0;entryDy=0;entryPerimeter=0;exitX=1.1;exitY=0.182;exitDx=0;exitDy=0;exitPerimeter=0;" parent="1" target="-DsZsUz7Ngo_Cz6wqwiF-117" edge="1">
          <mxGeometry relative="1" as="geometry">
            <mxPoint x="316" y="320.0799999999999" as="sourcePoint" />
            <mxPoint x="580" y="400" as="targetPoint" />
          </mxGeometry>
        </mxCell>
        <mxCell id="-DsZsUz7Ngo_Cz6wqwiF-244" value="多次支付" style="html=1;verticalAlign=bottom;endArrow=block;entryX=0;entryY=0;entryDx=0;entryDy=0;entryPerimeter=0;" parent="1" target="-DsZsUz7Ngo_Cz6wqwiF-242" edge="1">
          <mxGeometry width="80" relative="1" as="geometry">
            <mxPoint x="170" y="180" as="sourcePoint" />
            <mxPoint x="300" y="180" as="targetPoint" />
          </mxGeometry>
        </mxCell>
        <mxCell id="-DsZsUz7Ngo_Cz6wqwiF-245" value="" style="html=1;points=[];perimeter=orthogonalPerimeter;rounded=0;shadow=0;comic=0;labelBackgroundColor=none;strokeWidth=1;fontFamily=Verdana;fontSize=12;align=center;" parent="1" vertex="1">
          <mxGeometry x="310" y="209" width="10" height="40" as="geometry" />
        </mxCell>
        <mxCell id="-DsZsUz7Ngo_Cz6wqwiF-246" value="" style="html=1;verticalAlign=bottom;endArrow=block;labelBackgroundColor=none;fontFamily=Verdana;fontSize=12;elbow=vertical;edgeStyle=orthogonalEdgeStyle;curved=1;entryX=1;entryY=0.286;entryPerimeter=0;exitX=1.038;exitY=0.345;exitPerimeter=0;" parent="1" edge="1">
          <mxGeometry relative="1" as="geometry">
            <mxPoint x="315.3333333333335" y="190" as="sourcePoint" />
            <mxPoint x="320.3333333333335" y="228.33333333333348" as="targetPoint" />
            <Array as="points">
              <mxPoint x="370" y="190" />
              <mxPoint x="370" y="228" />
            </Array>
          </mxGeometry>
        </mxCell>
        <mxCell id="-DsZsUz7Ngo_Cz6wqwiF-252" value="参数校验" style="edgeLabel;html=1;align=center;verticalAlign=middle;resizable=0;points=[];" parent="-DsZsUz7Ngo_Cz6wqwiF-246" vertex="1" connectable="0">
          <mxGeometry x="0.033" y="-3" relative="1" as="geometry">
            <mxPoint as="offset" />
          </mxGeometry>
        </mxCell>
        <mxCell id="-DsZsUz7Ngo_Cz6wqwiF-249" value="return" style="html=1;verticalAlign=bottom;endArrow=open;dashed=1;endSize=6;entryX=1.1;entryY=0.25;entryDx=0;entryDy=0;entryPerimeter=0;" parent="1" edge="1">
          <mxGeometry relative="1" as="geometry">
            <mxPoint x="865" y="350" as="sourcePoint" />
            <mxPoint x="316" y="350" as="targetPoint" />
          </mxGeometry>
        </mxCell>
        <mxCell id="-DsZsUz7Ngo_Cz6wqwiF-250" value="" style="html=1;points=[];perimeter=orthogonalPerimeter;rounded=0;shadow=0;comic=0;labelBackgroundColor=none;strokeWidth=1;fontFamily=Verdana;fontSize=12;align=center;" parent="1" vertex="1">
          <mxGeometry x="310" y="379" width="10" height="40" as="geometry" />
        </mxCell>
        <mxCell id="-DsZsUz7Ngo_Cz6wqwiF-251" value="" style="html=1;verticalAlign=bottom;endArrow=block;labelBackgroundColor=none;fontFamily=Verdana;fontSize=12;elbow=vertical;edgeStyle=orthogonalEdgeStyle;curved=1;entryX=1;entryY=0.286;entryPerimeter=0;exitX=1.038;exitY=0.345;exitPerimeter=0;" parent="1" edge="1">
          <mxGeometry relative="1" as="geometry">
            <mxPoint x="315.3333333333335" y="360" as="sourcePoint" />
            <mxPoint x="320.3333333333335" y="398.3333333333335" as="targetPoint" />
            <Array as="points">
              <mxPoint x="370" y="360" />
              <mxPoint x="370" y="398" />
            </Array>
          </mxGeometry>
        </mxCell>
        <mxCell id="-DsZsUz7Ngo_Cz6wqwiF-253" value="放入outBizInfo&lt;br&gt;透传给渠道层" style="edgeLabel;html=1;align=center;verticalAlign=middle;resizable=0;points=[];" parent="-DsZsUz7Ngo_Cz6wqwiF-251" vertex="1" connectable="0">
          <mxGeometry x="0.0049" relative="1" as="geometry">
            <mxPoint as="offset" />
          </mxGeometry>
        </mxCell>
        <mxCell id="-DsZsUz7Ngo_Cz6wqwiF-258" value="[paytool == wxpay]" style="text;html=1;align=center;verticalAlign=middle;resizable=0;points=[];autosize=1;strokeColor=none;" parent="1" vertex="1">
          <mxGeometry x="190" y="290" width="120" height="20" as="geometry" />
        </mxCell>
        <mxCell id="-DsZsUz7Ngo_Cz6wqwiF-260" value="" style="endArrow=none;html=1;edgeStyle=orthogonalEdgeStyle;dashed=1;" parent="1" edge="1">
          <mxGeometry relative="1" as="geometry">
            <mxPoint x="191" y="430" as="sourcePoint" />
            <mxPoint x="920" y="430" as="targetPoint" />
          </mxGeometry>
        </mxCell>
        <mxCell id="-DsZsUz7Ngo_Cz6wqwiF-261" value="[else]" style="text;html=1;align=center;verticalAlign=middle;resizable=0;points=[];autosize=1;strokeColor=none;" parent="1" vertex="1">
          <mxGeometry x="194" y="430" width="40" height="20" as="geometry" />
        </mxCell>
        <mxCell id="-DsZsUz7Ngo_Cz6wqwiF-264" value="" style="html=1;points=[];perimeter=orthogonalPerimeter;rounded=0;shadow=0;comic=0;labelBackgroundColor=none;strokeWidth=1;fontFamily=Verdana;fontSize=12;align=center;" parent="1" vertex="1">
          <mxGeometry x="310" y="549" width="10" height="40" as="geometry" />
        </mxCell>
        <mxCell id="-DsZsUz7Ngo_Cz6wqwiF-265" value="" style="html=1;verticalAlign=bottom;endArrow=block;labelBackgroundColor=none;fontFamily=Verdana;fontSize=12;elbow=vertical;edgeStyle=orthogonalEdgeStyle;curved=1;entryX=1;entryY=0.286;entryPerimeter=0;exitX=1.038;exitY=0.345;exitPerimeter=0;" parent="1" edge="1">
          <mxGeometry relative="1" as="geometry">
            <mxPoint x="315.3333333333335" y="530" as="sourcePoint" />
            <mxPoint x="320.3333333333335" y="568.3333333333335" as="targetPoint" />
            <Array as="points">
              <mxPoint x="370" y="530" />
              <mxPoint x="370" y="568" />
            </Array>
          </mxGeometry>
        </mxCell>
        <mxCell id="-DsZsUz7Ngo_Cz6wqwiF-266" value="营销支付校验" style="edgeLabel;html=1;align=center;verticalAlign=middle;resizable=0;points=[];" parent="-DsZsUz7Ngo_Cz6wqwiF-265" vertex="1" connectable="0">
          <mxGeometry x="0.075" relative="1" as="geometry">
            <mxPoint as="offset" />
          </mxGeometry>
        </mxCell>
        <mxCell id="MUZBJ02Qxf5INC0UAl_N-4" value="" style="html=1;points=[];perimeter=orthogonalPerimeter;rounded=0;shadow=0;comic=0;labelBackgroundColor=none;strokeWidth=1;fontFamily=Verdana;fontSize=12;align=center;" parent="1" vertex="1">
          <mxGeometry x="310" y="619" width="10" height="40" as="geometry" />
        </mxCell>
        <mxCell id="MUZBJ02Qxf5INC0UAl_N-5" value="" style="html=1;verticalAlign=bottom;endArrow=block;labelBackgroundColor=none;fontFamily=Verdana;fontSize=12;elbow=vertical;edgeStyle=orthogonalEdgeStyle;curved=1;entryX=1;entryY=0.286;entryPerimeter=0;exitX=1.038;exitY=0.345;exitPerimeter=0;" parent="1" edge="1">
          <mxGeometry relative="1" as="geometry">
            <mxPoint x="315.3333333333335" y="600" as="sourcePoint" />
            <mxPoint x="320.3333333333335" y="638.3333333333335" as="targetPoint" />
            <Array as="points">
              <mxPoint x="370" y="600" />
              <mxPoint x="370" y="638" />
            </Array>
          </mxGeometry>
        </mxCell>
        <mxCell id="MUZBJ02Qxf5INC0UAl_N-6" value="校验收单是否能支付" style="edgeLabel;html=1;align=center;verticalAlign=middle;resizable=0;points=[];" parent="MUZBJ02Qxf5INC0UAl_N-5" vertex="1" connectable="0">
          <mxGeometry x="0.075" relative="1" as="geometry">
            <mxPoint as="offset" />
          </mxGeometry>
        </mxCell>
        <mxCell id="MUZBJ02Qxf5INC0UAl_N-7" value="" style="html=1;points=[];perimeter=orthogonalPerimeter;rounded=0;shadow=0;comic=0;labelBackgroundColor=none;strokeWidth=1;fontFamily=Verdana;fontSize=12;align=center;" parent="1" vertex="1">
          <mxGeometry x="310" y="690" width="10" height="40" as="geometry" />
        </mxCell>
        <mxCell id="MUZBJ02Qxf5INC0UAl_N-8" value="" style="html=1;verticalAlign=bottom;endArrow=block;labelBackgroundColor=none;fontFamily=Verdana;fontSize=12;elbow=vertical;edgeStyle=orthogonalEdgeStyle;curved=1;entryX=1;entryY=0.286;entryPerimeter=0;exitX=1.038;exitY=0.345;exitPerimeter=0;" parent="1" edge="1">
          <mxGeometry relative="1" as="geometry">
            <mxPoint x="315.3333333333335" y="671" as="sourcePoint" />
            <mxPoint x="320.3333333333335" y="709.3333333333335" as="targetPoint" />
            <Array as="points">
              <mxPoint x="370" y="671" />
              <mxPoint x="370" y="709" />
            </Array>
          </mxGeometry>
        </mxCell>
        <mxCell id="MUZBJ02Qxf5INC0UAl_N-9" value="爱逛不支持合单支付" style="edgeLabel;html=1;align=center;verticalAlign=middle;resizable=0;points=[];" parent="MUZBJ02Qxf5INC0UAl_N-8" vertex="1" connectable="0">
          <mxGeometry x="0.075" relative="1" as="geometry">
            <mxPoint as="offset" />
          </mxGeometry>
        </mxCell>
        <mxCell id="MUZBJ02Qxf5INC0UAl_N-10" value="" style="html=1;points=[];perimeter=orthogonalPerimeter;rounded=0;shadow=0;comic=0;labelBackgroundColor=none;strokeWidth=1;fontFamily=Verdana;fontSize=12;align=center;" parent="1" vertex="1">
          <mxGeometry x="310" y="769" width="10" height="40" as="geometry" />
        </mxCell>
        <mxCell id="MUZBJ02Qxf5INC0UAl_N-11" value="" style="html=1;verticalAlign=bottom;endArrow=block;labelBackgroundColor=none;fontFamily=Verdana;fontSize=12;elbow=vertical;edgeStyle=orthogonalEdgeStyle;curved=1;entryX=1;entryY=0.286;entryPerimeter=0;exitX=1.038;exitY=0.345;exitPerimeter=0;" parent="1" edge="1">
          <mxGeometry relative="1" as="geometry">
            <mxPoint x="315.3333333333335" y="750" as="sourcePoint" />
            <mxPoint x="320.3333333333335" y="788.3333333333335" as="targetPoint" />
            <Array as="points">
              <mxPoint x="370" y="750" />
              <mxPoint x="370" y="788" />
            </Array>
          </mxGeometry>
        </mxCell>
        <mxCell id="MUZBJ02Qxf5INC0UAl_N-12" value="校验商户是否完成开户" style="edgeLabel;html=1;align=center;verticalAlign=middle;resizable=0;points=[];" parent="MUZBJ02Qxf5INC0UAl_N-11" vertex="1" connectable="0">
          <mxGeometry x="0.075" relative="1" as="geometry">
            <mxPoint as="offset" />
          </mxGeometry>
        </mxCell>
        <mxCell id="CnnFhk8UefjDQZWVQF-c-1" value="" style="html=1;points=[];perimeter=orthogonalPerimeter;rounded=0;shadow=0;comic=0;labelBackgroundColor=none;strokeWidth=1;fontFamily=Verdana;fontSize=12;align=center;" parent="1" vertex="1">
          <mxGeometry x="310" y="839" width="10" height="40" as="geometry" />
        </mxCell>
        <mxCell id="CnnFhk8UefjDQZWVQF-c-2" value="" style="html=1;verticalAlign=bottom;endArrow=block;labelBackgroundColor=none;fontFamily=Verdana;fontSize=12;elbow=vertical;edgeStyle=orthogonalEdgeStyle;curved=1;entryX=1;entryY=0.286;entryPerimeter=0;exitX=1.038;exitY=0.345;exitPerimeter=0;" parent="1" edge="1">
          <mxGeometry relative="1" as="geometry">
            <mxPoint x="315.3333333333335" y="820" as="sourcePoint" />
            <mxPoint x="320.3333333333335" y="858.3333333333335" as="targetPoint" />
            <Array as="points">
              <mxPoint x="370" y="820" />
              <mxPoint x="370" y="858" />
            </Array>
          </mxGeometry>
        </mxCell>
        <mxCell id="CnnFhk8UefjDQZWVQF-c-3" value="保存支付明细" style="edgeLabel;html=1;align=center;verticalAlign=middle;resizable=0;points=[];" parent="CnnFhk8UefjDQZWVQF-c-2" vertex="1" connectable="0">
          <mxGeometry x="0.075" relative="1" as="geometry">
            <mxPoint as="offset" />
          </mxGeometry>
        </mxCell>
        <mxCell id="CnnFhk8UefjDQZWVQF-c-4" value="" style="html=1;points=[];perimeter=orthogonalPerimeter;rounded=0;shadow=0;comic=0;labelBackgroundColor=none;strokeWidth=1;fontFamily=Verdana;fontSize=12;align=center;" parent="1" vertex="1">
          <mxGeometry x="310" y="910" width="10" height="40" as="geometry" />
        </mxCell>
        <mxCell id="CnnFhk8UefjDQZWVQF-c-5" value="" style="html=1;verticalAlign=bottom;endArrow=block;labelBackgroundColor=none;fontFamily=Verdana;fontSize=12;elbow=vertical;edgeStyle=orthogonalEdgeStyle;curved=1;entryX=1;entryY=0.286;entryPerimeter=0;exitX=1.038;exitY=0.345;exitPerimeter=0;" parent="1" edge="1">
          <mxGeometry relative="1" as="geometry">
            <mxPoint x="315.3333333333335" y="891" as="sourcePoint" />
            <mxPoint x="320.3333333333335" y="929.3333333333335" as="targetPoint" />
            <Array as="points">
              <mxPoint x="370" y="891" />
              <mxPoint x="370" y="929" />
            </Array>
          </mxGeometry>
        </mxCell>
        <mxCell id="CnnFhk8UefjDQZWVQF-c-6" value="发创建支付单消息" style="edgeLabel;html=1;align=center;verticalAlign=middle;resizable=0;points=[];" parent="CnnFhk8UefjDQZWVQF-c-5" vertex="1" connectable="0">
          <mxGeometry x="0.075" relative="1" as="geometry">
            <mxPoint as="offset" />
          </mxGeometry>
        </mxCell>
        <mxCell id="CnnFhk8UefjDQZWVQF-c-7" value="" style="html=1;points=[];perimeter=orthogonalPerimeter;rounded=0;shadow=0;comic=0;labelBackgroundColor=none;strokeWidth=1;fontFamily=Verdana;fontSize=12;align=center;" parent="1" vertex="1">
          <mxGeometry x="310" y="989" width="10" height="40" as="geometry" />
        </mxCell>
        <mxCell id="CnnFhk8UefjDQZWVQF-c-8" value="" style="html=1;verticalAlign=bottom;endArrow=block;labelBackgroundColor=none;fontFamily=Verdana;fontSize=12;elbow=vertical;edgeStyle=orthogonalEdgeStyle;curved=1;entryX=1;entryY=0.286;entryPerimeter=0;exitX=1.038;exitY=0.345;exitPerimeter=0;" parent="1" edge="1">
          <mxGeometry relative="1" as="geometry">
            <mxPoint x="315.3333333333335" y="970" as="sourcePoint" />
            <mxPoint x="320.3333333333335" y="1008.3333333333335" as="targetPoint" />
            <Array as="points">
              <mxPoint x="370" y="970" />
              <mxPoint x="370" y="1008" />
            </Array>
          </mxGeometry>
        </mxCell>
        <mxCell id="CnnFhk8UefjDQZWVQF-c-9" value="风控检查" style="edgeLabel;html=1;align=center;verticalAlign=middle;resizable=0;points=[];" parent="CnnFhk8UefjDQZWVQF-c-8" vertex="1" connectable="0">
          <mxGeometry x="0.075" relative="1" as="geometry">
            <mxPoint as="offset" />
          </mxGeometry>
        </mxCell>
        <mxCell id="CnnFhk8UefjDQZWVQF-c-10" value="" style="html=1;points=[];perimeter=orthogonalPerimeter;rounded=0;shadow=0;comic=0;labelBackgroundColor=none;strokeWidth=1;fontFamily=Verdana;fontSize=12;align=center;" parent="1" vertex="1">
          <mxGeometry x="310" y="1060" width="10" height="40" as="geometry" />
        </mxCell>
        <mxCell id="CnnFhk8UefjDQZWVQF-c-11" value="" style="html=1;verticalAlign=bottom;endArrow=block;labelBackgroundColor=none;fontFamily=Verdana;fontSize=12;elbow=vertical;edgeStyle=orthogonalEdgeStyle;curved=1;entryX=1;entryY=0.286;entryPerimeter=0;exitX=1.038;exitY=0.345;exitPerimeter=0;" parent="1" edge="1">
          <mxGeometry relative="1" as="geometry">
            <mxPoint x="315.3333333333335" y="1041" as="sourcePoint" />
            <mxPoint x="320.3333333333335" y="1079.3333333333335" as="targetPoint" />
            <Array as="points">
              <mxPoint x="370" y="1041" />
              <mxPoint x="370" y="1079" />
            </Array>
          </mxGeometry>
        </mxCell>
        <mxCell id="CnnFhk8UefjDQZWVQF-c-12" value="执行支付指令" style="edgeLabel;html=1;align=center;verticalAlign=middle;resizable=0;points=[];" parent="CnnFhk8UefjDQZWVQF-c-11" vertex="1" connectable="0">
          <mxGeometry x="0.075" relative="1" as="geometry">
            <mxPoint as="offset" />
          </mxGeometry>
        </mxCell>
        <mxCell id="CnnFhk8UefjDQZWVQF-c-15" value="" style="html=1;points=[];perimeter=orthogonalPerimeter;rounded=0;shadow=0;comic=0;labelBackgroundColor=none;strokeWidth=1;fontFamily=Verdana;fontSize=12;align=center;" parent="1" vertex="1">
          <mxGeometry x="310" y="1199" width="10" height="40" as="geometry" />
        </mxCell>
        <mxCell id="CnnFhk8UefjDQZWVQF-c-16" value="" style="html=1;verticalAlign=bottom;endArrow=block;labelBackgroundColor=none;fontFamily=Verdana;fontSize=12;elbow=vertical;edgeStyle=orthogonalEdgeStyle;curved=1;entryX=1;entryY=0.286;entryPerimeter=0;exitX=1.038;exitY=0.345;exitPerimeter=0;" parent="1" edge="1">
          <mxGeometry relative="1" as="geometry">
            <mxPoint x="315.3333333333335" y="1180" as="sourcePoint" />
            <mxPoint x="320.3333333333335" y="1218.3333333333335" as="targetPoint" />
            <Array as="points">
              <mxPoint x="370" y="1180" />
              <mxPoint x="370" y="1218" />
            </Array>
          </mxGeometry>
        </mxCell>
        <mxCell id="CnnFhk8UefjDQZWVQF-c-17" value="支付后处理（更新收单状态）" style="edgeLabel;html=1;align=center;verticalAlign=middle;resizable=0;points=[];" parent="CnnFhk8UefjDQZWVQF-c-16" vertex="1" connectable="0">
          <mxGeometry x="0.075" relative="1" as="geometry">
            <mxPoint as="offset" />
          </mxGeometry>
        </mxCell>
        <mxCell id="CnnFhk8UefjDQZWVQF-c-18" value="" style="html=1;points=[];perimeter=orthogonalPerimeter;rounded=0;shadow=0;comic=0;labelBackgroundColor=none;strokeColor=#000000;strokeWidth=1;fillColor=#FFFFFF;fontFamily=Verdana;fontSize=12;fontColor=#000000;align=center;" parent="1" vertex="1">
          <mxGeometry x="445" y="1120" width="10" height="760" as="geometry" />
        </mxCell>
        <mxCell id="CnnFhk8UefjDQZWVQF-c-20" value="支付" style="html=1;verticalAlign=bottom;endArrow=block;labelBackgroundColor=none;fontFamily=Verdana;fontSize=12;edgeStyle=elbowEdgeStyle;elbow=vertical;exitX=1;exitY=0.854;exitDx=0;exitDy=0;exitPerimeter=0;" parent="1" source="-DsZsUz7Ngo_Cz6wqwiF-242" edge="1">
          <mxGeometry relative="1" as="geometry">
            <mxPoint x="322" y="1120" as="sourcePoint" />
            <mxPoint x="447" y="1121" as="targetPoint" />
            <Array as="points">
              <mxPoint x="320" y="1121" />
            </Array>
          </mxGeometry>
        </mxCell>
        <mxCell id="CnnFhk8UefjDQZWVQF-c-21" value="" style="html=1;points=[];perimeter=orthogonalPerimeter;rounded=0;shadow=0;comic=0;labelBackgroundColor=none;strokeWidth=1;fontFamily=Verdana;fontSize=12;align=center;" parent="1" vertex="1">
          <mxGeometry x="450" y="1159" width="10" height="40" as="geometry" />
        </mxCell>
        <mxCell id="CnnFhk8UefjDQZWVQF-c-22" value="" style="html=1;verticalAlign=bottom;endArrow=block;labelBackgroundColor=none;fontFamily=Verdana;fontSize=12;elbow=vertical;edgeStyle=orthogonalEdgeStyle;curved=1;entryX=1;entryY=0.286;entryPerimeter=0;exitX=1.038;exitY=0.345;exitPerimeter=0;" parent="1" edge="1">
          <mxGeometry relative="1" as="geometry">
            <mxPoint x="455.3333333333335" y="1140" as="sourcePoint" />
            <mxPoint x="460.3333333333335" y="1178.3333333333335" as="targetPoint" />
            <Array as="points">
              <mxPoint x="510" y="1140" />
              <mxPoint x="510" y="1178" />
            </Array>
          </mxGeometry>
        </mxCell>
        <mxCell id="CnnFhk8UefjDQZWVQF-c-23" value="获取支付方式、&lt;br&gt;支付渠道" style="edgeLabel;html=1;align=center;verticalAlign=middle;resizable=0;points=[];" parent="CnnFhk8UefjDQZWVQF-c-22" vertex="1" connectable="0">
          <mxGeometry x="0.075" relative="1" as="geometry">
            <mxPoint as="offset" />
          </mxGeometry>
        </mxCell>
        <mxCell id="CnnFhk8UefjDQZWVQF-c-24" value="" style="html=1;points=[];perimeter=orthogonalPerimeter;rounded=0;shadow=0;comic=0;labelBackgroundColor=none;strokeColor=#000000;strokeWidth=1;fillColor=#FFFFFF;fontFamily=Verdana;fontSize=12;fontColor=#000000;align=center;" parent="1" vertex="1">
          <mxGeometry x="585" y="1400" width="10" height="1980" as="geometry" />
        </mxCell>
        <mxCell id="CnnFhk8UefjDQZWVQF-c-25" value="return" style="html=1;verticalAlign=bottom;endArrow=open;dashed=1;endSize=6;labelBackgroundColor=none;fontFamily=Verdana;fontSize=12;edgeStyle=elbowEdgeStyle;elbow=vertical;exitX=0;exitY=0.037;exitDx=0;exitDy=0;exitPerimeter=0;" parent="1" source="CnnFhk8UefjDQZWVQF-c-18" edge="1">
          <mxGeometry relative="1" as="geometry">
            <mxPoint x="314" y="1150" as="targetPoint" />
            <Array as="points">
              <mxPoint x="383.5" y="1150" />
              <mxPoint x="413.5" y="1150" />
            </Array>
            <mxPoint x="438.5" y="1150" as="sourcePoint" />
          </mxGeometry>
        </mxCell>
        <mxCell id="CnnFhk8UefjDQZWVQF-c-26" value="支付" style="html=1;verticalAlign=bottom;endArrow=block;labelBackgroundColor=none;fontFamily=Verdana;fontSize=12;edgeStyle=elbowEdgeStyle;elbow=vertical;exitX=1;exitY=0.854;exitDx=0;exitDy=0;exitPerimeter=0;" parent="1" edge="1">
          <mxGeometry relative="1" as="geometry">
            <mxPoint x="455" y="1220" as="sourcePoint" />
            <mxPoint x="587" y="1221.6" as="targetPoint" />
            <Array as="points">
              <mxPoint x="460" y="1221.6" />
            </Array>
          </mxGeometry>
        </mxCell>
        <mxCell id="CnnFhk8UefjDQZWVQF-c-27" value="" style="html=1;points=[];perimeter=orthogonalPerimeter;rounded=0;shadow=0;comic=0;labelBackgroundColor=none;strokeWidth=1;fontFamily=Verdana;fontSize=12;align=center;" parent="1" vertex="1">
          <mxGeometry x="590" y="1258" width="10" height="40" as="geometry" />
        </mxCell>
        <mxCell id="CnnFhk8UefjDQZWVQF-c-28" value="" style="html=1;verticalAlign=bottom;endArrow=block;labelBackgroundColor=none;fontFamily=Verdana;fontSize=12;elbow=vertical;edgeStyle=orthogonalEdgeStyle;curved=1;entryX=1;entryY=0.286;entryPerimeter=0;exitX=1.038;exitY=0.345;exitPerimeter=0;" parent="1" edge="1">
          <mxGeometry relative="1" as="geometry">
            <mxPoint x="595.3333333333335" y="1239" as="sourcePoint" />
            <mxPoint x="600.3333333333335" y="1277.3333333333335" as="targetPoint" />
            <Array as="points">
              <mxPoint x="650" y="1239" />
              <mxPoint x="650" y="1277" />
            </Array>
          </mxGeometry>
        </mxCell>
        <mxCell id="CnnFhk8UefjDQZWVQF-c-29" value="参数校验" style="edgeLabel;html=1;align=center;verticalAlign=middle;resizable=0;points=[];" parent="CnnFhk8UefjDQZWVQF-c-28" vertex="1" connectable="0">
          <mxGeometry x="0.075" relative="1" as="geometry">
            <mxPoint as="offset" />
          </mxGeometry>
        </mxCell>
        <mxCell id="CnnFhk8UefjDQZWVQF-c-30" value="" style="html=1;points=[];perimeter=orthogonalPerimeter;rounded=0;shadow=0;comic=0;labelBackgroundColor=none;strokeWidth=1;fontFamily=Verdana;fontSize=12;align=center;" parent="1" vertex="1">
          <mxGeometry x="590" y="1333" width="10" height="40" as="geometry" />
        </mxCell>
        <mxCell id="CnnFhk8UefjDQZWVQF-c-31" value="" style="html=1;verticalAlign=bottom;endArrow=block;labelBackgroundColor=none;fontFamily=Verdana;fontSize=12;elbow=vertical;edgeStyle=orthogonalEdgeStyle;curved=1;entryX=1;entryY=0.286;entryPerimeter=0;exitX=1.038;exitY=0.345;exitPerimeter=0;" parent="1" edge="1">
          <mxGeometry relative="1" as="geometry">
            <mxPoint x="595.3333333333335" y="1314" as="sourcePoint" />
            <mxPoint x="600.3333333333335" y="1352.3333333333335" as="targetPoint" />
            <Array as="points">
              <mxPoint x="650" y="1314" />
              <mxPoint x="650" y="1352" />
            </Array>
          </mxGeometry>
        </mxCell>
        <mxCell id="CnnFhk8UefjDQZWVQF-c-32" value="业务校验" style="edgeLabel;html=1;align=center;verticalAlign=middle;resizable=0;points=[];" parent="CnnFhk8UefjDQZWVQF-c-31" vertex="1" connectable="0">
          <mxGeometry x="0.075" relative="1" as="geometry">
            <mxPoint as="offset" />
          </mxGeometry>
        </mxCell>
        <mxCell id="CnnFhk8UefjDQZWVQF-c-35" value="" style="html=1;points=[];perimeter=orthogonalPerimeter;rounded=0;shadow=0;comic=0;labelBackgroundColor=none;strokeWidth=1;fontFamily=Verdana;fontSize=12;align=center;" parent="1" vertex="1">
          <mxGeometry x="590" y="1409" width="10" height="40" as="geometry" />
        </mxCell>
        <mxCell id="CnnFhk8UefjDQZWVQF-c-36" value="" style="html=1;verticalAlign=bottom;endArrow=block;labelBackgroundColor=none;fontFamily=Verdana;fontSize=12;elbow=vertical;edgeStyle=orthogonalEdgeStyle;curved=1;entryX=1;entryY=0.286;entryPerimeter=0;exitX=1.038;exitY=0.345;exitPerimeter=0;" parent="1" edge="1">
          <mxGeometry relative="1" as="geometry">
            <mxPoint x="595.3333333333335" y="1390" as="sourcePoint" />
            <mxPoint x="600.3333333333335" y="1428.3333333333335" as="targetPoint" />
            <Array as="points">
              <mxPoint x="650" y="1390" />
              <mxPoint x="650" y="1428" />
            </Array>
          </mxGeometry>
        </mxCell>
        <mxCell id="CnnFhk8UefjDQZWVQF-c-37" value="初始化&amp;amp;保存支付单模型" style="edgeLabel;html=1;align=center;verticalAlign=middle;resizable=0;points=[];" parent="CnnFhk8UefjDQZWVQF-c-36" vertex="1" connectable="0">
          <mxGeometry x="0.075" relative="1" as="geometry">
            <mxPoint as="offset" />
          </mxGeometry>
        </mxCell>
        <mxCell id="CnnFhk8UefjDQZWVQF-c-38" value="" style="html=1;points=[];perimeter=orthogonalPerimeter;rounded=0;shadow=0;comic=0;labelBackgroundColor=none;strokeWidth=1;fontFamily=Verdana;fontSize=12;align=center;" parent="1" vertex="1">
          <mxGeometry x="590" y="1479" width="10" height="40" as="geometry" />
        </mxCell>
        <mxCell id="CnnFhk8UefjDQZWVQF-c-39" value="" style="html=1;verticalAlign=bottom;endArrow=block;labelBackgroundColor=none;fontFamily=Verdana;fontSize=12;elbow=vertical;edgeStyle=orthogonalEdgeStyle;curved=1;entryX=1;entryY=0.286;entryPerimeter=0;exitX=1.038;exitY=0.345;exitPerimeter=0;" parent="1" edge="1">
          <mxGeometry relative="1" as="geometry">
            <mxPoint x="595.3333333333335" y="1460" as="sourcePoint" />
            <mxPoint x="600.3333333333335" y="1498.3333333333335" as="targetPoint" />
            <Array as="points">
              <mxPoint x="650" y="1460" />
              <mxPoint x="650" y="1498" />
            </Array>
          </mxGeometry>
        </mxCell>
        <mxCell id="CnnFhk8UefjDQZWVQF-c-40" value="根据payChannelApi获取路由策略" style="edgeLabel;html=1;align=center;verticalAlign=middle;resizable=0;points=[];" parent="CnnFhk8UefjDQZWVQF-c-39" vertex="1" connectable="0">
          <mxGeometry x="0.075" relative="1" as="geometry">
            <mxPoint as="offset" />
          </mxGeometry>
        </mxCell>
        <mxCell id="CnnFhk8UefjDQZWVQF-c-41" value="" style="html=1;points=[];perimeter=orthogonalPerimeter;rounded=0;shadow=0;comic=0;labelBackgroundColor=none;strokeWidth=1;fontFamily=Verdana;fontSize=12;align=center;" parent="1" vertex="1">
          <mxGeometry x="725" y="1540" width="10" height="40" as="geometry" />
        </mxCell>
        <mxCell id="CnnFhk8UefjDQZWVQF-c-42" value="查询银行卡签约信息" style="html=1;verticalAlign=bottom;endArrow=block;labelBackgroundColor=none;fontFamily=Verdana;fontSize=12;edgeStyle=elbowEdgeStyle;elbow=vertical;exitX=1;exitY=0.854;exitDx=0;exitDy=0;exitPerimeter=0;" parent="1" edge="1">
          <mxGeometry relative="1" as="geometry">
            <mxPoint x="595" y="1540" as="sourcePoint" />
            <mxPoint x="727" y="1541.6" as="targetPoint" />
            <Array as="points">
              <mxPoint x="600" y="1541.6" />
            </Array>
          </mxGeometry>
        </mxCell>
        <mxCell id="CnnFhk8UefjDQZWVQF-c-43" value="return" style="html=1;verticalAlign=bottom;endArrow=open;dashed=1;endSize=6;labelBackgroundColor=none;fontFamily=Verdana;fontSize=12;edgeStyle=elbowEdgeStyle;elbow=vertical;" parent="1" edge="1">
          <mxGeometry relative="1" as="geometry">
            <mxPoint x="595" y="1568.5" as="targetPoint" />
            <Array as="points">
              <mxPoint x="670" y="1568.5" />
              <mxPoint x="700" y="1568.5" />
            </Array>
            <mxPoint x="725" y="1568.5" as="sourcePoint" />
          </mxGeometry>
        </mxCell>
        <mxCell id="CnnFhk8UefjDQZWVQF-c-50" value="" style="html=1;points=[];perimeter=orthogonalPerimeter;rounded=0;shadow=0;comic=0;labelBackgroundColor=none;strokeWidth=1;fontFamily=Verdana;fontSize=12;align=center;" parent="1" vertex="1">
          <mxGeometry x="590" y="1739" width="10" height="40" as="geometry" />
        </mxCell>
        <mxCell id="CnnFhk8UefjDQZWVQF-c-51" value="" style="html=1;verticalAlign=bottom;endArrow=block;labelBackgroundColor=none;fontFamily=Verdana;fontSize=12;elbow=vertical;edgeStyle=orthogonalEdgeStyle;curved=1;entryX=1;entryY=0.286;entryPerimeter=0;exitX=1.038;exitY=0.345;exitPerimeter=0;" parent="1" edge="1">
          <mxGeometry relative="1" as="geometry">
            <mxPoint x="595.3333333333335" y="1720" as="sourcePoint" />
            <mxPoint x="600.3333333333335" y="1758.3333333333335" as="targetPoint" />
            <Array as="points">
              <mxPoint x="650" y="1720" />
              <mxPoint x="650" y="1758" />
            </Array>
          </mxGeometry>
        </mxCell>
        <mxCell id="CnnFhk8UefjDQZWVQF-c-52" value="路由策略填充卡签约信息" style="edgeLabel;html=1;align=center;verticalAlign=middle;resizable=0;points=[];" parent="CnnFhk8UefjDQZWVQF-c-51" vertex="1" connectable="0">
          <mxGeometry x="0.075" relative="1" as="geometry">
            <mxPoint as="offset" />
          </mxGeometry>
        </mxCell>
        <mxCell id="CnnFhk8UefjDQZWVQF-c-53" value="" style="html=1;points=[];perimeter=orthogonalPerimeter;rounded=0;shadow=0;comic=0;labelBackgroundColor=none;strokeWidth=1;fontFamily=Verdana;fontSize=12;align=center;" parent="1" vertex="1">
          <mxGeometry x="590" y="1809" width="10" height="40" as="geometry" />
        </mxCell>
        <mxCell id="CnnFhk8UefjDQZWVQF-c-54" value="" style="html=1;verticalAlign=bottom;endArrow=block;labelBackgroundColor=none;fontFamily=Verdana;fontSize=12;elbow=vertical;edgeStyle=orthogonalEdgeStyle;curved=1;entryX=1;entryY=0.286;entryPerimeter=0;exitX=1.038;exitY=0.345;exitPerimeter=0;" parent="1" edge="1">
          <mxGeometry relative="1" as="geometry">
            <mxPoint x="595.3333333333335" y="1790" as="sourcePoint" />
            <mxPoint x="600.3333333333335" y="1828.3333333333335" as="targetPoint" />
            <Array as="points">
              <mxPoint x="650" y="1790" />
              <mxPoint x="650" y="1828" />
            </Array>
          </mxGeometry>
        </mxCell>
        <mxCell id="CnnFhk8UefjDQZWVQF-c-55" value="路由策略填充商户进件信息" style="edgeLabel;html=1;align=center;verticalAlign=middle;resizable=0;points=[];" parent="CnnFhk8UefjDQZWVQF-c-54" vertex="1" connectable="0">
          <mxGeometry x="0.075" relative="1" as="geometry">
            <mxPoint as="offset" />
          </mxGeometry>
        </mxCell>
        <mxCell id="CnnFhk8UefjDQZWVQF-c-56" value="" style="html=1;points=[];perimeter=orthogonalPerimeter;rounded=0;shadow=0;comic=0;labelBackgroundColor=none;strokeWidth=1;fontFamily=Verdana;fontSize=12;align=center;" parent="1" vertex="1">
          <mxGeometry x="590" y="1669" width="10" height="40" as="geometry" />
        </mxCell>
        <mxCell id="CnnFhk8UefjDQZWVQF-c-57" value="" style="html=1;verticalAlign=bottom;endArrow=block;labelBackgroundColor=none;fontFamily=Verdana;fontSize=12;elbow=vertical;edgeStyle=orthogonalEdgeStyle;curved=1;entryX=1;entryY=0.286;entryPerimeter=0;exitX=1.038;exitY=0.345;exitPerimeter=0;" parent="1" edge="1">
          <mxGeometry relative="1" as="geometry">
            <mxPoint x="595.3333333333335" y="1650" as="sourcePoint" />
            <mxPoint x="600.3333333333335" y="1688.3333333333335" as="targetPoint" />
            <Array as="points">
              <mxPoint x="650" y="1650" />
              <mxPoint x="650" y="1688" />
            </Array>
          </mxGeometry>
        </mxCell>
        <mxCell id="CnnFhk8UefjDQZWVQF-c-58" value="过滤绑卡渠道" style="edgeLabel;html=1;align=center;verticalAlign=middle;resizable=0;points=[];" parent="CnnFhk8UefjDQZWVQF-c-57" vertex="1" connectable="0">
          <mxGeometry x="0.075" relative="1" as="geometry">
            <mxPoint as="offset" />
          </mxGeometry>
        </mxCell>
        <mxCell id="CnnFhk8UefjDQZWVQF-c-59" value="" style="html=1;points=[];perimeter=orthogonalPerimeter;rounded=0;shadow=0;comic=0;labelBackgroundColor=none;strokeWidth=1;fontFamily=Verdana;fontSize=12;align=center;" parent="1" vertex="1">
          <mxGeometry x="590" y="1880" width="10" height="40" as="geometry" />
        </mxCell>
        <mxCell id="CnnFhk8UefjDQZWVQF-c-60" value="" style="html=1;verticalAlign=bottom;endArrow=block;labelBackgroundColor=none;fontFamily=Verdana;fontSize=12;elbow=vertical;edgeStyle=orthogonalEdgeStyle;curved=1;entryX=1;entryY=0.286;entryPerimeter=0;exitX=1.038;exitY=0.345;exitPerimeter=0;" parent="1" edge="1">
          <mxGeometry relative="1" as="geometry">
            <mxPoint x="595.3333333333335" y="1861" as="sourcePoint" />
            <mxPoint x="600.3333333333335" y="1899.3333333333335" as="targetPoint" />
            <Array as="points">
              <mxPoint x="650" y="1861" />
              <mxPoint x="650" y="1899" />
            </Array>
          </mxGeometry>
        </mxCell>
        <mxCell id="CnnFhk8UefjDQZWVQF-c-61" value="路由信息校验" style="edgeLabel;html=1;align=center;verticalAlign=middle;resizable=0;points=[];" parent="CnnFhk8UefjDQZWVQF-c-60" vertex="1" connectable="0">
          <mxGeometry x="0.075" relative="1" as="geometry">
            <mxPoint as="offset" />
          </mxGeometry>
        </mxCell>
        <mxCell id="CnnFhk8UefjDQZWVQF-c-63" value="" style="html=1;points=[];perimeter=orthogonalPerimeter;rounded=0;shadow=0;comic=0;labelBackgroundColor=none;strokeWidth=1;fontFamily=Verdana;fontSize=12;align=center;" parent="1" vertex="1">
          <mxGeometry x="590" y="1950" width="10" height="40" as="geometry" />
        </mxCell>
        <mxCell id="CnnFhk8UefjDQZWVQF-c-64" value="" style="html=1;verticalAlign=bottom;endArrow=block;labelBackgroundColor=none;fontFamily=Verdana;fontSize=12;elbow=vertical;edgeStyle=orthogonalEdgeStyle;curved=1;entryX=1;entryY=0.286;entryPerimeter=0;exitX=1.038;exitY=0.345;exitPerimeter=0;" parent="1" edge="1">
          <mxGeometry relative="1" as="geometry">
            <mxPoint x="595.3333333333335" y="1931" as="sourcePoint" />
            <mxPoint x="600.3333333333335" y="1969.3333333333335" as="targetPoint" />
            <Array as="points">
              <mxPoint x="650" y="1931" />
              <mxPoint x="650" y="1969" />
            </Array>
          </mxGeometry>
        </mxCell>
        <mxCell id="CnnFhk8UefjDQZWVQF-c-65" value="查询渠道切流配置" style="edgeLabel;html=1;align=center;verticalAlign=middle;resizable=0;points=[];" parent="CnnFhk8UefjDQZWVQF-c-64" vertex="1" connectable="0">
          <mxGeometry x="0.075" relative="1" as="geometry">
            <mxPoint as="offset" />
          </mxGeometry>
        </mxCell>
        <mxCell id="CnnFhk8UefjDQZWVQF-c-66" value="" style="html=1;points=[];perimeter=orthogonalPerimeter;rounded=0;shadow=0;comic=0;labelBackgroundColor=none;strokeWidth=1;fontFamily=Verdana;fontSize=12;align=center;" parent="1" vertex="1">
          <mxGeometry x="590" y="2020.5" width="10" height="40" as="geometry" />
        </mxCell>
        <mxCell id="CnnFhk8UefjDQZWVQF-c-67" value="" style="html=1;verticalAlign=bottom;endArrow=block;labelBackgroundColor=none;fontFamily=Verdana;fontSize=12;elbow=vertical;edgeStyle=orthogonalEdgeStyle;curved=1;entryX=1;entryY=0.286;entryPerimeter=0;exitX=1.038;exitY=0.345;exitPerimeter=0;" parent="1" edge="1">
          <mxGeometry relative="1" as="geometry">
            <mxPoint x="595.3333333333335" y="2001.5" as="sourcePoint" />
            <mxPoint x="600.3333333333335" y="2039.8333333333335" as="targetPoint" />
            <Array as="points">
              <mxPoint x="650" y="2001.5" />
              <mxPoint x="650" y="2039.5" />
            </Array>
          </mxGeometry>
        </mxCell>
        <mxCell id="CnnFhk8UefjDQZWVQF-c-68" value="根据partnerId切流" style="edgeLabel;html=1;align=center;verticalAlign=middle;resizable=0;points=[];" parent="CnnFhk8UefjDQZWVQF-c-67" vertex="1" connectable="0">
          <mxGeometry x="0.075" relative="1" as="geometry">
            <mxPoint as="offset" />
          </mxGeometry>
        </mxCell>
        <mxCell id="CnnFhk8UefjDQZWVQF-c-69" value="" style="html=1;points=[];perimeter=orthogonalPerimeter;rounded=0;shadow=0;comic=0;labelBackgroundColor=none;strokeWidth=1;fontFamily=Verdana;fontSize=12;align=center;" parent="1" vertex="1">
          <mxGeometry x="590" y="2089.5" width="10" height="40" as="geometry" />
        </mxCell>
        <mxCell id="CnnFhk8UefjDQZWVQF-c-70" value="" style="html=1;verticalAlign=bottom;endArrow=block;labelBackgroundColor=none;fontFamily=Verdana;fontSize=12;elbow=vertical;edgeStyle=orthogonalEdgeStyle;curved=1;entryX=1;entryY=0.286;entryPerimeter=0;exitX=1.038;exitY=0.345;exitPerimeter=0;" parent="1" edge="1">
          <mxGeometry relative="1" as="geometry">
            <mxPoint x="595.3333333333335" y="2070.5" as="sourcePoint" />
            <mxPoint x="600.3333333333335" y="2108.8333333333335" as="targetPoint" />
            <Array as="points">
              <mxPoint x="650" y="2070.5" />
              <mxPoint x="650" y="2108.5" />
            </Array>
          </mxGeometry>
        </mxCell>
        <mxCell id="CnnFhk8UefjDQZWVQF-c-71" value="根据payeeId切流" style="edgeLabel;html=1;align=center;verticalAlign=middle;resizable=0;points=[];" parent="CnnFhk8UefjDQZWVQF-c-70" vertex="1" connectable="0">
          <mxGeometry x="0.075" relative="1" as="geometry">
            <mxPoint as="offset" />
          </mxGeometry>
        </mxCell>
        <mxCell id="CnnFhk8UefjDQZWVQF-c-72" value="" style="html=1;points=[];perimeter=orthogonalPerimeter;rounded=0;shadow=0;comic=0;labelBackgroundColor=none;strokeWidth=1;fontFamily=Verdana;fontSize=12;align=center;" parent="1" vertex="1">
          <mxGeometry x="590" y="2160" width="10" height="40" as="geometry" />
        </mxCell>
        <mxCell id="CnnFhk8UefjDQZWVQF-c-73" value="" style="html=1;verticalAlign=bottom;endArrow=block;labelBackgroundColor=none;fontFamily=Verdana;fontSize=12;elbow=vertical;edgeStyle=orthogonalEdgeStyle;curved=1;entryX=1;entryY=0.286;entryPerimeter=0;exitX=1.038;exitY=0.345;exitPerimeter=0;" parent="1" edge="1">
          <mxGeometry relative="1" as="geometry">
            <mxPoint x="595.3333333333335" y="2141" as="sourcePoint" />
            <mxPoint x="600.3333333333335" y="2179.3333333333335" as="targetPoint" />
            <Array as="points">
              <mxPoint x="650" y="2141" />
              <mxPoint x="650" y="2179" />
            </Array>
          </mxGeometry>
        </mxCell>
        <mxCell id="CnnFhk8UefjDQZWVQF-c-74" value="根据支持银行切流" style="edgeLabel;html=1;align=center;verticalAlign=middle;resizable=0;points=[];" parent="CnnFhk8UefjDQZWVQF-c-73" vertex="1" connectable="0">
          <mxGeometry x="0.075" relative="1" as="geometry">
            <mxPoint as="offset" />
          </mxGeometry>
        </mxCell>
        <mxCell id="CnnFhk8UefjDQZWVQF-c-78" value="" style="html=1;points=[];perimeter=orthogonalPerimeter;rounded=0;shadow=0;comic=0;labelBackgroundColor=none;strokeWidth=1;fontFamily=Verdana;fontSize=12;align=center;" parent="1" vertex="1">
          <mxGeometry x="590" y="2229" width="10" height="40" as="geometry" />
        </mxCell>
        <mxCell id="CnnFhk8UefjDQZWVQF-c-79" value="" style="html=1;verticalAlign=bottom;endArrow=block;labelBackgroundColor=none;fontFamily=Verdana;fontSize=12;elbow=vertical;edgeStyle=orthogonalEdgeStyle;curved=1;entryX=1;entryY=0.286;entryPerimeter=0;exitX=1.038;exitY=0.345;exitPerimeter=0;" parent="1" edge="1">
          <mxGeometry relative="1" as="geometry">
            <mxPoint x="595.3333333333335" y="2210" as="sourcePoint" />
            <mxPoint x="600.3333333333335" y="2248.3333333333335" as="targetPoint" />
            <Array as="points">
              <mxPoint x="650" y="2210" />
              <mxPoint x="650" y="2248" />
            </Array>
          </mxGeometry>
        </mxCell>
        <mxCell id="CnnFhk8UefjDQZWVQF-c-80" value="根据priority切流" style="edgeLabel;html=1;align=center;verticalAlign=middle;resizable=0;points=[];" parent="CnnFhk8UefjDQZWVQF-c-79" vertex="1" connectable="0">
          <mxGeometry x="0.075" relative="1" as="geometry">
            <mxPoint as="offset" />
          </mxGeometry>
        </mxCell>
        <mxCell id="CnnFhk8UefjDQZWVQF-c-81" value="" style="html=1;points=[];perimeter=orthogonalPerimeter;rounded=0;shadow=0;comic=0;labelBackgroundColor=none;strokeWidth=1;fontFamily=Verdana;fontSize=12;align=center;" parent="1" vertex="1">
          <mxGeometry x="590" y="2300" width="10" height="40" as="geometry" />
        </mxCell>
        <mxCell id="CnnFhk8UefjDQZWVQF-c-82" value="" style="html=1;verticalAlign=bottom;endArrow=block;labelBackgroundColor=none;fontFamily=Verdana;fontSize=12;elbow=vertical;edgeStyle=orthogonalEdgeStyle;curved=1;entryX=1;entryY=0.286;entryPerimeter=0;exitX=1.038;exitY=0.345;exitPerimeter=0;" parent="1" edge="1">
          <mxGeometry relative="1" as="geometry">
            <mxPoint x="595.3333333333335" y="2281" as="sourcePoint" />
            <mxPoint x="600.3333333333335" y="2319.3333333333335" as="targetPoint" />
            <Array as="points">
              <mxPoint x="650" y="2281" />
              <mxPoint x="650" y="2319" />
            </Array>
          </mxGeometry>
        </mxCell>
        <mxCell id="CnnFhk8UefjDQZWVQF-c-83" value="根据权重切流" style="edgeLabel;html=1;align=center;verticalAlign=middle;resizable=0;points=[];" parent="CnnFhk8UefjDQZWVQF-c-82" vertex="1" connectable="0">
          <mxGeometry x="0.075" relative="1" as="geometry">
            <mxPoint as="offset" />
          </mxGeometry>
        </mxCell>
        <mxCell id="CnnFhk8UefjDQZWVQF-c-84" value="" style="html=1;points=[];perimeter=orthogonalPerimeter;rounded=0;shadow=0;comic=0;labelBackgroundColor=none;strokeWidth=1;fontFamily=Verdana;fontSize=12;align=center;" parent="1" vertex="1">
          <mxGeometry x="590" y="2371" width="10" height="40" as="geometry" />
        </mxCell>
        <mxCell id="CnnFhk8UefjDQZWVQF-c-85" value="" style="html=1;verticalAlign=bottom;endArrow=block;labelBackgroundColor=none;fontFamily=Verdana;fontSize=12;elbow=vertical;edgeStyle=orthogonalEdgeStyle;curved=1;entryX=1;entryY=0.286;entryPerimeter=0;exitX=1.038;exitY=0.345;exitPerimeter=0;" parent="1" edge="1">
          <mxGeometry relative="1" as="geometry">
            <mxPoint x="595.3333333333335" y="2352" as="sourcePoint" />
            <mxPoint x="600.3333333333335" y="2390.3333333333335" as="targetPoint" />
            <Array as="points">
              <mxPoint x="650" y="2352" />
              <mxPoint x="650" y="2390" />
            </Array>
          </mxGeometry>
        </mxCell>
        <mxCell id="CnnFhk8UefjDQZWVQF-c-86" value="查询渠道账号切流配置" style="edgeLabel;html=1;align=center;verticalAlign=middle;resizable=0;points=[];" parent="CnnFhk8UefjDQZWVQF-c-85" vertex="1" connectable="0">
          <mxGeometry x="0.075" relative="1" as="geometry">
            <mxPoint as="offset" />
          </mxGeometry>
        </mxCell>
        <mxCell id="CnnFhk8UefjDQZWVQF-c-87" value="" style="html=1;points=[];perimeter=orthogonalPerimeter;rounded=0;shadow=0;comic=0;labelBackgroundColor=none;strokeWidth=1;fontFamily=Verdana;fontSize=12;align=center;" parent="1" vertex="1">
          <mxGeometry x="590" y="2439" width="10" height="40" as="geometry" />
        </mxCell>
        <mxCell id="CnnFhk8UefjDQZWVQF-c-88" value="" style="html=1;verticalAlign=bottom;endArrow=block;labelBackgroundColor=none;fontFamily=Verdana;fontSize=12;elbow=vertical;edgeStyle=orthogonalEdgeStyle;curved=1;entryX=1;entryY=0.286;entryPerimeter=0;exitX=1.038;exitY=0.345;exitPerimeter=0;" parent="1" edge="1">
          <mxGeometry relative="1" as="geometry">
            <mxPoint x="595.3333333333335" y="2420" as="sourcePoint" />
            <mxPoint x="600.3333333333335" y="2458.3333333333335" as="targetPoint" />
            <Array as="points">
              <mxPoint x="650" y="2420" />
              <mxPoint x="650" y="2458" />
            </Array>
          </mxGeometry>
        </mxCell>
        <mxCell id="CnnFhk8UefjDQZWVQF-c-89" value="根据priority切流" style="edgeLabel;html=1;align=center;verticalAlign=middle;resizable=0;points=[];" parent="CnnFhk8UefjDQZWVQF-c-88" vertex="1" connectable="0">
          <mxGeometry x="0.075" relative="1" as="geometry">
            <mxPoint as="offset" />
          </mxGeometry>
        </mxCell>
        <mxCell id="CnnFhk8UefjDQZWVQF-c-90" value="" style="html=1;points=[];perimeter=orthogonalPerimeter;rounded=0;shadow=0;comic=0;labelBackgroundColor=none;strokeWidth=1;fontFamily=Verdana;fontSize=12;align=center;" parent="1" vertex="1">
          <mxGeometry x="590" y="2510" width="10" height="40" as="geometry" />
        </mxCell>
        <mxCell id="CnnFhk8UefjDQZWVQF-c-91" value="" style="html=1;verticalAlign=bottom;endArrow=block;labelBackgroundColor=none;fontFamily=Verdana;fontSize=12;elbow=vertical;edgeStyle=orthogonalEdgeStyle;curved=1;entryX=1;entryY=0.286;entryPerimeter=0;exitX=1.038;exitY=0.345;exitPerimeter=0;" parent="1" edge="1">
          <mxGeometry relative="1" as="geometry">
            <mxPoint x="595.3333333333335" y="2491" as="sourcePoint" />
            <mxPoint x="600.3333333333335" y="2529.3333333333335" as="targetPoint" />
            <Array as="points">
              <mxPoint x="650" y="2491" />
              <mxPoint x="650" y="2529" />
            </Array>
          </mxGeometry>
        </mxCell>
        <mxCell id="CnnFhk8UefjDQZWVQF-c-92" value="根据权重切流" style="edgeLabel;html=1;align=center;verticalAlign=middle;resizable=0;points=[];" parent="CnnFhk8UefjDQZWVQF-c-91" vertex="1" connectable="0">
          <mxGeometry x="0.075" relative="1" as="geometry">
            <mxPoint as="offset" />
          </mxGeometry>
        </mxCell>
        <mxCell id="CnnFhk8UefjDQZWVQF-c-102" value="" style="html=1;points=[];perimeter=orthogonalPerimeter;rounded=0;shadow=0;comic=0;labelBackgroundColor=none;strokeWidth=1;fontFamily=Verdana;fontSize=12;align=center;" parent="1" vertex="1">
          <mxGeometry x="590" y="2579" width="10" height="40" as="geometry" />
        </mxCell>
        <mxCell id="CnnFhk8UefjDQZWVQF-c-103" value="" style="html=1;verticalAlign=bottom;endArrow=block;labelBackgroundColor=none;fontFamily=Verdana;fontSize=12;elbow=vertical;edgeStyle=orthogonalEdgeStyle;curved=1;entryX=1;entryY=0.286;entryPerimeter=0;exitX=1.038;exitY=0.345;exitPerimeter=0;" parent="1" edge="1">
          <mxGeometry relative="1" as="geometry">
            <mxPoint x="595.3333333333335" y="2560" as="sourcePoint" />
            <mxPoint x="600.3333333333335" y="2598.3333333333335" as="targetPoint" />
            <Array as="points">
              <mxPoint x="650" y="2560" />
              <mxPoint x="650" y="2598" />
            </Array>
          </mxGeometry>
        </mxCell>
        <mxCell id="CnnFhk8UefjDQZWVQF-c-104" value="路由模型填充channelCode" style="edgeLabel;html=1;align=center;verticalAlign=middle;resizable=0;points=[];" parent="CnnFhk8UefjDQZWVQF-c-103" vertex="1" connectable="0">
          <mxGeometry x="0.075" relative="1" as="geometry">
            <mxPoint as="offset" />
          </mxGeometry>
        </mxCell>
        <mxCell id="CnnFhk8UefjDQZWVQF-c-105" value="" style="html=1;points=[];perimeter=orthogonalPerimeter;rounded=0;shadow=0;comic=0;labelBackgroundColor=none;strokeWidth=1;fontFamily=Verdana;fontSize=12;align=center;" parent="1" vertex="1">
          <mxGeometry x="590" y="2654.5" width="10" height="40" as="geometry" />
        </mxCell>
        <mxCell id="CnnFhk8UefjDQZWVQF-c-106" value="" style="html=1;verticalAlign=bottom;endArrow=block;labelBackgroundColor=none;fontFamily=Verdana;fontSize=12;elbow=vertical;edgeStyle=orthogonalEdgeStyle;curved=1;entryX=1;entryY=0.286;entryPerimeter=0;exitX=1.038;exitY=0.345;exitPerimeter=0;" parent="1" edge="1">
          <mxGeometry relative="1" as="geometry">
            <mxPoint x="595.3333333333335" y="2635.5" as="sourcePoint" />
            <mxPoint x="600.3333333333335" y="2673.8333333333335" as="targetPoint" />
            <Array as="points">
              <mxPoint x="650" y="2635.5" />
              <mxPoint x="650" y="2673.5" />
            </Array>
          </mxGeometry>
        </mxCell>
        <mxCell id="CnnFhk8UefjDQZWVQF-c-107" value="查询渠道账号明细配置" style="edgeLabel;html=1;align=center;verticalAlign=middle;resizable=0;points=[];" parent="CnnFhk8UefjDQZWVQF-c-106" vertex="1" connectable="0">
          <mxGeometry x="0.075" relative="1" as="geometry">
            <mxPoint as="offset" />
          </mxGeometry>
        </mxCell>
        <mxCell id="CnnFhk8UefjDQZWVQF-c-108" value="" style="html=1;points=[];perimeter=orthogonalPerimeter;rounded=0;shadow=0;comic=0;labelBackgroundColor=none;strokeWidth=1;fontFamily=Verdana;fontSize=12;align=center;" parent="1" vertex="1">
          <mxGeometry x="590" y="2729" width="10" height="40" as="geometry" />
        </mxCell>
        <mxCell id="CnnFhk8UefjDQZWVQF-c-109" value="" style="html=1;verticalAlign=bottom;endArrow=block;labelBackgroundColor=none;fontFamily=Verdana;fontSize=12;elbow=vertical;edgeStyle=orthogonalEdgeStyle;curved=1;entryX=1;entryY=0.286;entryPerimeter=0;exitX=1.038;exitY=0.345;exitPerimeter=0;" parent="1" edge="1">
          <mxGeometry relative="1" as="geometry">
            <mxPoint x="595.3333333333335" y="2710" as="sourcePoint" />
            <mxPoint x="600.3333333333335" y="2748.3333333333335" as="targetPoint" />
            <Array as="points">
              <mxPoint x="650" y="2710" />
              <mxPoint x="650" y="2748" />
            </Array>
          </mxGeometry>
        </mxCell>
        <mxCell id="CnnFhk8UefjDQZWVQF-c-110" value="构造渠道支付请求配置" style="edgeLabel;html=1;align=center;verticalAlign=middle;resizable=0;points=[];" parent="CnnFhk8UefjDQZWVQF-c-109" vertex="1" connectable="0">
          <mxGeometry x="0.075" relative="1" as="geometry">
            <mxPoint as="offset" />
          </mxGeometry>
        </mxCell>
        <mxCell id="CnnFhk8UefjDQZWVQF-c-111" value="" style="html=1;points=[];perimeter=orthogonalPerimeter;rounded=0;shadow=0;comic=0;labelBackgroundColor=none;strokeWidth=1;fontFamily=Verdana;fontSize=12;align=center;" parent="1" vertex="1">
          <mxGeometry x="590" y="2799" width="10" height="40" as="geometry" />
        </mxCell>
        <mxCell id="CnnFhk8UefjDQZWVQF-c-112" value="" style="html=1;verticalAlign=bottom;endArrow=block;labelBackgroundColor=none;fontFamily=Verdana;fontSize=12;elbow=vertical;edgeStyle=orthogonalEdgeStyle;curved=1;entryX=1;entryY=0.286;entryPerimeter=0;exitX=1.038;exitY=0.345;exitPerimeter=0;" parent="1" edge="1">
          <mxGeometry relative="1" as="geometry">
            <mxPoint x="595.3333333333335" y="2780" as="sourcePoint" />
            <mxPoint x="600.3333333333335" y="2818.3333333333335" as="targetPoint" />
            <Array as="points">
              <mxPoint x="650" y="2780" />
              <mxPoint x="650" y="2818" />
            </Array>
          </mxGeometry>
        </mxCell>
        <mxCell id="CnnFhk8UefjDQZWVQF-c-113" value="填充支付单模型扩展字段" style="edgeLabel;html=1;align=center;verticalAlign=middle;resizable=0;points=[];" parent="CnnFhk8UefjDQZWVQF-c-112" vertex="1" connectable="0">
          <mxGeometry x="0.075" relative="1" as="geometry">
            <mxPoint as="offset" />
          </mxGeometry>
        </mxCell>
        <mxCell id="CnnFhk8UefjDQZWVQF-c-114" value="" style="html=1;points=[];perimeter=orthogonalPerimeter;rounded=0;shadow=0;comic=0;labelBackgroundColor=none;strokeWidth=1;fontFamily=Verdana;fontSize=12;align=center;" parent="1" vertex="1">
          <mxGeometry x="865" y="2863" width="10" height="40" as="geometry" />
        </mxCell>
        <mxCell id="CnnFhk8UefjDQZWVQF-c-115" value="交易流水号申请正向" style="html=1;verticalAlign=bottom;endArrow=block;labelBackgroundColor=none;fontFamily=Verdana;fontSize=12;edgeStyle=elbowEdgeStyle;elbow=vertical;exitX=1;exitY=0.74;exitDx=0;exitDy=0;exitPerimeter=0;" parent="1" source="CnnFhk8UefjDQZWVQF-c-24" edge="1">
          <mxGeometry relative="1" as="geometry">
            <mxPoint x="610" y="2863" as="sourcePoint" />
            <mxPoint x="865" y="2863" as="targetPoint" />
            <Array as="points">
              <mxPoint x="605" y="2862.6" />
            </Array>
          </mxGeometry>
        </mxCell>
        <mxCell id="CnnFhk8UefjDQZWVQF-c-116" value="return" style="html=1;verticalAlign=bottom;endArrow=open;dashed=1;endSize=6;labelBackgroundColor=none;fontFamily=Verdana;fontSize=12;edgeStyle=elbowEdgeStyle;elbow=vertical;exitX=0;exitY=0.7;exitDx=0;exitDy=0;exitPerimeter=0;" parent="1" source="CnnFhk8UefjDQZWVQF-c-114" edge="1">
          <mxGeometry relative="1" as="geometry">
            <mxPoint x="594" y="2890" as="targetPoint" />
            <Array as="points">
              <mxPoint x="804" y="2890" />
              <mxPoint x="834" y="2890" />
            </Array>
            <mxPoint x="859" y="2890" as="sourcePoint" />
          </mxGeometry>
        </mxCell>
        <mxCell id="CnnFhk8UefjDQZWVQF-c-117" value="" style="html=1;points=[];perimeter=orthogonalPerimeter;rounded=0;shadow=0;comic=0;labelBackgroundColor=none;strokeWidth=1;fontFamily=Verdana;fontSize=12;align=center;" parent="1" vertex="1">
          <mxGeometry x="590" y="2930" width="10" height="40" as="geometry" />
        </mxCell>
        <mxCell id="CnnFhk8UefjDQZWVQF-c-118" value="" style="html=1;verticalAlign=bottom;endArrow=block;labelBackgroundColor=none;fontFamily=Verdana;fontSize=12;elbow=vertical;edgeStyle=orthogonalEdgeStyle;curved=1;exitX=1.038;exitY=0.345;exitPerimeter=0;" parent="1" target="CnnFhk8UefjDQZWVQF-c-117" edge="1">
          <mxGeometry relative="1" as="geometry">
            <mxPoint x="595.3333333333335" y="2911" as="sourcePoint" />
            <mxPoint x="600.3333333333335" y="2949.3333333333335" as="targetPoint" />
            <Array as="points">
              <mxPoint x="650" y="2911" />
              <mxPoint x="650" y="2949" />
            </Array>
          </mxGeometry>
        </mxCell>
        <mxCell id="CnnFhk8UefjDQZWVQF-c-119" value="填充支付单模型渠道单号" style="edgeLabel;html=1;align=center;verticalAlign=middle;resizable=0;points=[];" parent="CnnFhk8UefjDQZWVQF-c-118" vertex="1" connectable="0">
          <mxGeometry x="0.075" relative="1" as="geometry">
            <mxPoint as="offset" />
          </mxGeometry>
        </mxCell>
        <mxCell id="CnnFhk8UefjDQZWVQF-c-120" value="" style="html=1;points=[];perimeter=orthogonalPerimeter;rounded=0;shadow=0;comic=0;labelBackgroundColor=none;strokeWidth=1;fontFamily=Verdana;fontSize=12;align=center;" parent="1" vertex="1">
          <mxGeometry x="590" y="3000" width="10" height="40" as="geometry" />
        </mxCell>
        <mxCell id="CnnFhk8UefjDQZWVQF-c-121" value="" style="html=1;verticalAlign=bottom;endArrow=block;labelBackgroundColor=none;fontFamily=Verdana;fontSize=12;elbow=vertical;edgeStyle=orthogonalEdgeStyle;curved=1;exitX=1.038;exitY=0.345;exitPerimeter=0;" parent="1" target="CnnFhk8UefjDQZWVQF-c-120" edge="1">
          <mxGeometry relative="1" as="geometry">
            <mxPoint x="595.3333333333335" y="2981" as="sourcePoint" />
            <mxPoint x="600.3333333333335" y="3019.3333333333335" as="targetPoint" />
            <Array as="points">
              <mxPoint x="650" y="2981" />
              <mxPoint x="650" y="3019" />
            </Array>
          </mxGeometry>
        </mxCell>
        <mxCell id="CnnFhk8UefjDQZWVQF-c-122" value="保存渠道单号和分片关系" style="edgeLabel;html=1;align=center;verticalAlign=middle;resizable=0;points=[];" parent="CnnFhk8UefjDQZWVQF-c-121" vertex="1" connectable="0">
          <mxGeometry x="0.075" relative="1" as="geometry">
            <mxPoint as="offset" />
          </mxGeometry>
        </mxCell>
        <mxCell id="CnnFhk8UefjDQZWVQF-c-123" value="" style="html=1;points=[];perimeter=orthogonalPerimeter;rounded=0;shadow=0;comic=0;labelBackgroundColor=none;strokeWidth=1;fontFamily=Verdana;fontSize=12;align=center;" parent="1" vertex="1">
          <mxGeometry x="590" y="3079" width="10" height="40" as="geometry" />
        </mxCell>
        <mxCell id="CnnFhk8UefjDQZWVQF-c-124" value="" style="html=1;verticalAlign=bottom;endArrow=block;labelBackgroundColor=none;fontFamily=Verdana;fontSize=12;elbow=vertical;edgeStyle=orthogonalEdgeStyle;curved=1;exitX=1.038;exitY=0.345;exitPerimeter=0;" parent="1" target="CnnFhk8UefjDQZWVQF-c-123" edge="1">
          <mxGeometry relative="1" as="geometry">
            <mxPoint x="595.3333333333335" y="3060" as="sourcePoint" />
            <mxPoint x="600.3333333333335" y="3098.3333333333335" as="targetPoint" />
            <Array as="points">
              <mxPoint x="650" y="3060" />
              <mxPoint x="650" y="3098" />
            </Array>
          </mxGeometry>
        </mxCell>
        <mxCell id="CnnFhk8UefjDQZWVQF-c-125" value="更细支付单模型" style="edgeLabel;html=1;align=center;verticalAlign=middle;resizable=0;points=[];" parent="CnnFhk8UefjDQZWVQF-c-124" vertex="1" connectable="0">
          <mxGeometry x="0.075" relative="1" as="geometry">
            <mxPoint as="offset" />
          </mxGeometry>
        </mxCell>
        <mxCell id="CnnFhk8UefjDQZWVQF-c-126" value="" style="html=1;points=[];perimeter=orthogonalPerimeter;rounded=0;shadow=0;comic=0;labelBackgroundColor=none;strokeWidth=1;fontFamily=Verdana;fontSize=12;align=center;" parent="1" vertex="1">
          <mxGeometry x="866" y="3140.4" width="10" height="40" as="geometry" />
        </mxCell>
        <mxCell id="CnnFhk8UefjDQZWVQF-c-127" value="协议支付申请正向" style="html=1;verticalAlign=bottom;endArrow=block;labelBackgroundColor=none;fontFamily=Verdana;fontSize=12;edgeStyle=elbowEdgeStyle;elbow=vertical;" parent="1" edge="1">
          <mxGeometry relative="1" as="geometry">
            <mxPoint x="596" y="3140" as="sourcePoint" />
            <mxPoint x="866" y="3140.4" as="targetPoint" />
            <Array as="points">
              <mxPoint x="606" y="3140" />
            </Array>
          </mxGeometry>
        </mxCell>
        <mxCell id="CnnFhk8UefjDQZWVQF-c-128" value="return" style="html=1;verticalAlign=bottom;endArrow=open;dashed=1;endSize=6;labelBackgroundColor=none;fontFamily=Verdana;fontSize=12;edgeStyle=elbowEdgeStyle;elbow=vertical;exitX=0;exitY=0.7;exitDx=0;exitDy=0;exitPerimeter=0;" parent="1" source="CnnFhk8UefjDQZWVQF-c-126" edge="1">
          <mxGeometry relative="1" as="geometry">
            <mxPoint x="595" y="3167.4" as="targetPoint" />
            <Array as="points">
              <mxPoint x="805" y="3167.4" />
              <mxPoint x="835" y="3167.4" />
            </Array>
            <mxPoint x="860" y="3167.4" as="sourcePoint" />
          </mxGeometry>
        </mxCell>
      </root>
    </mxGraphModel>
  </diagram>
</mxfile>
